<svg xmlns="http://www.w3.org/2000/svg" viewBox="0 0 418.09 140.21"><defs><style>.cls-1{fill:#fff;}.cls-2{font-size:65px;stroke:#1d1d1b;stroke-miterlimit:10;stroke-width:2px;font-family:BigJohn, Big John;letter-spacing:-0.07em;}.cls-3{letter-spacing:-0.05em;}</style></defs><g id="Ebene_2" data-name="Ebene 2"><g id="Ebene_1-2" data-name="Ebene 1"><path d="M128.32,128.49l-9.66-10.1c-16.4,15.49-35.48,22.39-57.54,19.85-18.44-2.14-33.69-10.66-45.47-25a69.32,69.32,0,0,1,5.89-94.07c25.66-24.71,68.32-26.74,97,1.16l9.8-10.06C161.94,43.24,160.41,97.56,128.32,128.49ZM79.42,79.83c-7.5,6.28-16.17,4.09-20.59-.76a14.38,14.38,0,0,1-.34-19A13.83,13.83,0,0,1,67,55.24a14.36,14.36,0,0,1,12.14,3.55l19-18.89C83.18,24.51,56,23.31,39.27,41.17a41.27,41.27,0,0,0,4.59,60.65c18.67,14.6,43.62,9.21,54.32-3.28Zm39-59L99,40.12c5.58,6.58,4.32,14.16.28,18.71a13.53,13.53,0,0,1-8.52,4.49,14,14,0,0,1-11-3.47L70.1,69.48,79.6,79c7-4.78,13.58-4.81,18.76,0a13.35,13.35,0,0,1,4.24,8A14,14,0,0,1,99,98.66c6.52,6.52,12.92,12.93,19.33,19.33C145.16,92.34,145.4,46.75,118.44,20.87Z"/><path class="cls-1" d="M79.42,79.83,98.18,98.54c-10.7,12.49-35.65,17.88-54.32,3.28a41.27,41.27,0,0,1-4.59-60.65C56,23.31,83.18,24.51,98.12,39.9l-19,18.89A14.36,14.36,0,0,0,67,55.24a13.83,13.83,0,0,0-8.54,4.86,14.38,14.38,0,0,0,.34,19C63.25,83.92,71.92,86.11,79.42,79.83Z"/><path class="cls-1" d="M118.44,20.87c27,25.88,26.72,71.47-.14,97.12-6.41-6.4-12.81-12.81-19.33-19.33a14,14,0,0,0,3.63-11.74,13.35,13.35,0,0,0-4.24-8c-5.18-4.81-11.72-4.78-18.76,0l-9.5-9.48,9.64-9.63a14,14,0,0,0,11,3.47,13.53,13.53,0,0,0,8.52-4.49c4-4.55,5.3-12.13-.28-18.71Zm-.77,61.47a13,13,0,1,0-13-13.06A12.88,12.88,0,0,0,117.67,82.34Zm-8.23,14.6a8.26,8.26,0,1,0,8.31-8.28A8.32,8.32,0,0,0,109.44,96.94ZM126,41.68a8.26,8.26,0,1,0-8.17,8.41A8.32,8.32,0,0,0,126,41.68Z"/><path d="M117.67,82.34a13,13,0,1,1,13.06-13A12.85,12.85,0,0,1,117.67,82.34Z"/><path d="M109.44,96.94a8.26,8.26,0,1,1,8.22,8.38A8.32,8.32,0,0,1,109.44,96.94Z"/><path d="M126,41.68a8.26,8.26,0,1,1-8.34-8.23A8.33,8.33,0,0,1,126,41.68Z"/><text class="cls-2" transform="translate(163.73 69.45) scale(1 0.95)">C<tspan class="cls-3" x="46.02" y="0">OMBO</tspan><tspan class="cls-3"><tspan x="0" y="63.16">PIZZA</tspan></tspan></text></g></g></svg>